<?xml version="1.0" encoding="utf-8"?>
<!-- Generator: Adobe Illustrator 18.1.1, SVG Export Plug-In . SVG Version: 6.00 Build 0)  -->
<svg version="1.1" id="Layer_1" xmlns="http://www.w3.org/2000/svg" xmlns:xlink="http://www.w3.org/1999/xlink" x="0px" y="0px"
	 width="488.6px" height="225.2px" viewBox="0 0 488.6 225.2" enable-background="new 0 0 488.6 225.2" xml:space="preserve">
<path fill="none" stroke="#695835" stroke-width="0.5" stroke-miterlimit="10" d="M119.6,57.5c-9,5.9-11.2,18.2-11.2,18.2
	c0,0,0,0.1,0,0.1c-1.6,1.3-5.2,4.3-9.7,8.4c0.8-8.5-2.4-13.5-10.5-14.3c-9.5-0.9-27,9.8-32.6,28.9c-3.4,11.5,1.8,21.7,11,25.3
	c-3.7,11.3,3,14.8,3,14.8s1.6,1.1-1.1-2.4c-1.6-2-2.7-5.9-0.8-12c5.8,1.9,13,1.2,20.4-3.3c20.2-12,20.8-23.8,21.8-26.2
	c1.1-2.5,2.4-21.6,2.4-21.6c0.5-0.4,2.8-2.1,2.8-2.1C122.4,66.4,128.6,51.6,119.6,57.5z M66.9,123.1c-7-2.8-10.3-11.8-8.1-21.6
	c2.7-12.2,13.6-27.2,24.1-30.2c10.3-3,16.2,3.5,15.1,13.5c-7.5,6.8-17.2,16.4-24.1,26c-1.5-0.6-2.4-1.8-3.1-3.5
	c-1.5-3.4,1.8-6.3,1.8-6.3s-0.2,0.5-0.1,3.3c0.1,2.8,8.2,0.1,4.9-3.7s-7.4,0.8-7.6,5.2c-0.1,3.1,2.1,4.8,3.6,5.6
	c-0.7,0.9-1.3,1.8-1.9,2.7C69.3,117.6,67.9,120.6,66.9,123.1z M97.7,86.8c-2,10.1-11.1,22.8-17.1,24c-2.5,0.5-4.3,0.6-5.7,0.3
	c1.1-1.5,2.3-3,3.7-4.6C85,98.9,92,92.1,97.7,86.8z M103.8,97.2c-9.9,21.9-20.3,26.3-31.1,26.8c-1.7,0.1-3.2-0.1-4.6-0.5
	c1.1-3.2,3.1-7.1,6.3-11.5c0.1,0,0.1,0,0.1,0c11.7,2.7,21-12,23.5-23.2c0.2-0.9,0.4-1.8,0.5-2.7c4.2-3.8,7.6-6.7,9.7-8.4
	C106.6,89.5,103.8,97.2,103.8,97.2z M121.5,62.7c-4.6,7.2-8.6,8.6-8.6,8.6c0.8-6.6,5.7-11.6,5.7-11.6
	C121,56.6,126.1,55.5,121.5,62.7z"/>
<path fill="none" stroke="#695835" stroke-width="0.5" stroke-miterlimit="10" d="M121.9,84.4c-0.7,1.8-0.3,3,1.2,3.5
	c1.5,0.5,3.2-0.5,3.8-2.3c0.7-1.8,0.7-3.3-0.7-3.8S122.5,82.5,121.9,84.4z"/>
<path fill="none" stroke="#695835" stroke-width="0.5" stroke-miterlimit="10" d="M119.3,92.9c0,0,4.2-0.2,5.5-0.9
	c0,0-8.6,20.9-8.4,22.8s2.3,6.5,13.9-14.1c0,0-6.5,17.7-13,16.8c-5.1-0.7-5.2-5.7-1.3-15.8C117,99.1,117.7,96,119.3,92.9z"/>
<path fill="none" stroke="#695835" stroke-width="0.5" stroke-miterlimit="10" d="M132,100.9c0,0,6.5-16.8,11.1-10.9
	c0,0,1.9,2.8,1.2,6.6c0,0,4.8-9.2,7.8-9.6c3-0.5,6.3,0.8,5.6,7.2c0,0,4.5-8,7.7-9.1c3.2-1.1,8,1,6.4,7.9c-1.6,6.9-6.2,11.3-5.1,14.4
	s6.1-1.5,11.1-11.3l2.2-3.7c0,0-4,10.5-9.1,16c0,0-2.1,2.1-5,0.7s-4.6-4.6-1.2-11.9s5.1-11.6,1.9-11.7s-12.5,16.7-15.5,25.9
	c0,0-4.4,0.6-5.3,1c0,0,7.3-16.4,8.1-20.2s-0.5-8.8-7.3,1.9s-8.7,19.4-8.7,19.4s-3.2,0.3-5.2,1.1c0,0,6.3-15.2,8.1-20.8
	S139.7,86.3,132,100.9z"/>
<path fill="none" stroke="#695835" stroke-width="0.5" stroke-miterlimit="10" d="M199.5,80.3c-3-1.3-5.3-0.6-9.1,5.4l6.2-16.2
	c0,0-3.5,0.8-4.8,0.6l-26.1,62.8c0,0,2.5-1.2,4.9-0.9c0,0,11.6-27.6,12.1-28.2c0,0,0.1,2.8,2.7,2.7c2.6-0.1,8.8-2.3,14.5-10.3
	S202.6,81.6,199.5,80.3z M195.1,96.5c-6.2,9.8-8.7,9-10.2,9.1c-1.5,0-2.1-5.9,3.9-15.9c0,0,4.9-8.6,7.9-9.1S201.3,86.7,195.1,96.5z"
	/>
<path fill="none" stroke="#695835" stroke-width="0.5" stroke-miterlimit="10" d="M220.9,55.6l-13.2,33.2c0,0-4.9,10.3,0.4,12.9
	c5.3,2.6,8.4-3,14.2-15.9c0,0-9,15.4-11.4,15.8c0,0-2.1,0.8-2-0.8c0.4-5.8,2.7-10.8,16.9-45.2l0.4-1
	C226.3,54.6,223.2,55.9,220.9,55.6z"/>
<path fill="none" stroke="#695835" stroke-width="0.5" stroke-miterlimit="10" d="M236.6,98.6c3.6-10,9.7-25.8,9.9-26.3
	c-2.3,1.5-5.5,1-5.5,1s-2.6,9.6-7.8,18.8c-5.2,9.2-8.7,7.2-8.5,4.7c0.2-2.5,8.2-21.5,8.5-22.1c-1.8,0.9-5.6,1.1-5.6,1.1
	c-5.4,14-9.3,20.9-3.8,23.7c5.3,2.7,9.1-4.8,9.4-5.4c-0.1,0.4-0.9,3.8-2.6,8.8c-0.2,0.1-0.4,0.2-0.6,0.3
	c-10.6,5.9-21.4,15.3-22.2,22.3c-0.9,7,5.5,5.4,5.5,5.4c11.6-4.1,18.6-18.9,21.5-27.3c0.3-1,0.8-2.2,1.2-3.5
	c13.1-9.8,15-18.3,15.1-18.8C248.2,86.3,243.5,93.1,236.6,98.6z M224.2,118.5c-6.3,12.8-18,15.1-15.1,6c2.7-8.3,8.2-11.6,21.1-20.4
	C228.8,108.3,226.8,113.3,224.2,118.5z"/>
<path fill="#D8B463" d="M119.6,57.5c-9,5.9-11.2,18.2-11.2,18.2c0,0,0,0.1,0,0.1c-1.6,1.3-5.2,4.3-9.7,8.4
	c0.8-8.5-2.4-13.5-10.5-14.3c-9.5-0.9-27,9.8-32.6,28.9c-3.4,11.5,1.8,21.7,11,25.3c-3.7,11.3,3,14.8,3,14.8s1.6,1.1-1.1-2.4
	c-1.6-2-2.7-5.9-0.8-12c5.8,1.9,13,1.2,20.4-3.3c20.2-12,20.8-23.8,21.8-26.2c1.1-2.5,2.4-21.6,2.4-21.6c0.5-0.4,2.8-2.1,2.8-2.1
	C122.4,66.4,128.6,51.6,119.6,57.5z M66.9,123.1c-7-2.8-10.3-11.8-8.1-21.6c2.7-12.2,13.6-27.2,24.1-30.2c10.3-3,16.2,3.5,15.1,13.5
	c-7.5,6.8-17.2,16.4-24.1,26c-1.5-0.6-2.4-1.8-3.1-3.5c-1.5-3.4,1.8-6.3,1.8-6.3s-0.2,0.5-0.1,3.3c0.1,2.8,8.2,0.1,4.9-3.7
	s-7.4,0.8-7.6,5.2c-0.1,3.1,2.1,4.8,3.6,5.6c-0.7,0.9-1.3,1.8-1.9,2.7C69.3,117.6,67.9,120.6,66.9,123.1z M97.7,86.8
	c-2,10.1-11.1,22.8-17.1,24c-2.5,0.5-4.3,0.6-5.7,0.3c1.1-1.5,2.3-3,3.7-4.6C85,98.9,92,92.1,97.7,86.8z M103.8,97.2
	c-9.9,21.9-20.3,26.3-31.1,26.8c-1.7,0.1-3.2-0.1-4.6-0.5c1.1-3.2,3.1-7.1,6.3-11.5c0.1,0,0.1,0,0.1,0c11.7,2.7,21-12,23.5-23.2
	c0.2-0.9,0.4-1.8,0.5-2.7c4.2-3.8,7.6-6.7,9.7-8.4C106.6,89.5,103.8,97.2,103.8,97.2z M121.5,62.7c-4.6,7.2-8.6,8.6-8.6,8.6
	c0.8-6.6,5.7-11.6,5.7-11.6C121,56.6,126.1,55.5,121.5,62.7z"/>
<path fill="#D8B463" d="M121.9,84.4c-0.7,1.8-0.3,3,1.2,3.5c1.5,0.5,3.2-0.5,3.8-2.3c0.7-1.8,0.7-3.3-0.7-3.8S122.5,82.5,121.9,84.4
	z"/>
<path fill="#D8B463" d="M119.3,92.9c0,0,4.2-0.2,5.5-0.9c0,0-8.6,20.9-8.4,22.8s2.3,6.5,13.9-14.1c0,0-6.5,17.7-13,16.8
	c-5.1-0.7-5.2-5.7-1.3-15.8C117,99.1,117.7,96,119.3,92.9z"/>
<path fill="#D8B463" d="M132,100.9c0,0,6.5-16.8,11.1-10.9c0,0,1.9,2.8,1.2,6.6c0,0,4.8-9.2,7.8-9.6c3-0.5,6.3,0.8,5.6,7.2
	c0,0,4.5-8,7.7-9.1c3.2-1.1,8,1,6.4,7.9c-1.6,6.9-6.2,11.3-5.1,14.4s6.1-1.5,11.1-11.3l2.2-3.7c0,0-4,10.5-9.1,16c0,0-2.1,2.1-5,0.7
	s-4.6-4.6-1.2-11.9s5.1-11.6,1.9-11.7s-12.5,16.7-15.5,25.9c0,0-4.4,0.6-5.3,1c0,0,7.3-16.4,8.1-20.2s-0.5-8.8-7.3,1.9
	s-8.7,19.4-8.7,19.4s-3.2,0.3-5.2,1.1c0,0,6.3-15.2,8.1-20.8S139.7,86.3,132,100.9z"/>
<path fill="#D8B463" d="M199.5,80.3c-3-1.3-5.3-0.6-9.1,5.4l6.2-16.2c0,0-3.5,0.8-4.8,0.6l-26.1,62.8c0,0,2.5-1.2,4.9-0.9
	c0,0,11.6-27.6,12.1-28.2c0,0,0.1,2.8,2.7,2.7c2.6-0.1,8.8-2.3,14.5-10.3S202.6,81.6,199.5,80.3z M195.1,96.5
	c-6.2,9.8-8.7,9-10.2,9.1c-1.5,0-2.1-5.9,3.9-15.9c0,0,4.9-8.6,7.9-9.1S201.3,86.7,195.1,96.5z"/>
<path fill="#D8B463" d="M220.9,55.6l-13.2,33.2c0,0-4.9,10.3,0.4,12.9c5.3,2.6,8.4-3,14.2-15.9c0,0-9,15.4-11.4,15.8
	c0,0-2.1,0.8-2-0.8c0.4-5.8,2.7-10.8,16.9-45.2l0.4-1C226.3,54.6,223.2,55.9,220.9,55.6z"/>
<path fill="#D8B463" d="M236.6,98.6c3.6-10,9.7-25.8,9.9-26.3c-2.3,1.5-5.5,1-5.5,1s-2.6,9.6-7.8,18.8c-5.2,9.2-8.7,7.2-8.5,4.7
	c0.2-2.5,8.2-21.5,8.5-22.1c-1.8,0.9-5.6,1.1-5.6,1.1c-5.4,14-9.3,20.9-3.8,23.7c5.3,2.7,9.1-4.8,9.4-5.4c-0.1,0.4-0.9,3.8-2.6,8.8
	c-0.2,0.1-0.4,0.2-0.6,0.3c-10.6,5.9-21.4,15.3-22.2,22.3c-0.9,7,5.5,5.4,5.5,5.4c11.6-4.1,18.6-18.9,21.5-27.3
	c0.3-1,0.8-2.2,1.2-3.5c13.1-9.8,15-18.3,15.1-18.8C248.2,86.3,243.5,93.1,236.6,98.6z M224.2,118.5c-6.3,12.8-18,15.1-15.1,6
	c2.7-8.3,8.2-11.6,21.1-20.4C228.8,108.3,226.8,113.3,224.2,118.5z"/>
<path fill="none" stroke="#695835" stroke-width="0.5" stroke-miterlimit="10" d="M311.3,116.2c0,2.2-0.9,1.3-0.9,1.3
	c1.4-10.2-4.6-21.6-18.9-15.1c-2.9,1.3-5.5,3.2-7.7,5.3c0.1,0,0.2,0.1,0.3,0.1c7.4,3.6,7.8,10.6,6.9,14.9c-0.9,4.3-9.2,7.7-9.2,7.7
	s4.8,0.7,9.1,6c4.2,5.3,3.1,14.1-3.3,21.5c-6.4,7.4-19.2,9.4-21.5,1.8c-2.3-7.6,1.7-12.8,4.9-16.7c3.2-4,11.4-6.6,13.7-0.5
	c2.2,6.1-1.8,9.5-1.5,9s0.8-3,0.8-3c1.3-12.5-8.4-7.6-8.4-7.6c-13.1,9-10.1,24.9-0.1,22c10-2.9,12.4-13.3,12.8-20.8
	c0.4-7.4-7.8-11.2-7.8-11.2c0,0-0.3,0-3.3,0.6c-3.5,0.7-6.3,0.8-5-0.6c1.3-1.5,8-0.9,8-0.9c2.2-1.6,3.4-2.8,3.4-2.8
	c6.9-8,2-15.1-1.1-17.9c-8,8.7-12.3,22-15.8,34.6c-4.7,16.6-21.5,26.3-30.8,26.8s-15.4-5.4-12.2-11.4c3.2-6,8.6,1.2,5.1,3.6
	c-3.5,2.4-4.1-1.2-4.1-1.2c-2.2,9.5,13.9,7.7,13.9,7.7c18.5-4.6,23-29.3,31.9-44.6c3.1-5.3,6.8-11.3,11.2-16.2c0,0-0.1-0.1-0.1-0.1
	c-2.9-2-22.7-9.4-42.5,9.4c-19.9,18.7-13.6,33.3-7.6,35.9c6,2.7,12.3-0.9,12.3-0.9c19.1-13,20.5-30.4,12.6-31.8
	c-7.9-1.4-17.1,10.2-19.7,18.5s4.8,8.6,4.8,8.6c-2.3,0.8-10.6-1.9-5.4-13.6c5.2-11.7,19.8-18.9,24.3-12.4c4.6,6.5-1.6,17.1-1.6,17.1
	c-11.7,19.1-25.2,18.2-30.7,13.9c-5.5-4.3-10.8-20.3,9.4-37c19-15.7,37.1-12.3,45.4-8.9c4.9-5,10.7-8.4,17.5-7.6
	C313.8,101.3,311.3,113.9,311.3,116.2z"/>
<path fill="none" stroke="#695835" stroke-width="0.5" stroke-miterlimit="10" d="M311.5,121.9c-0.3,0-3,0.1-4.1,3.8
	c-1.1,3.8,3.2,2.9,4.5,1.1C313.2,125,313.8,121.7,311.5,121.9z"/>
<path fill="none" stroke="#695835" stroke-width="0.5" stroke-miterlimit="10" d="M329.4,138.8c-3.8-4.1-3.3-9.7-3.3-9.7
	c3.4-3.1,5.2-10.7,1.9-7.7c-3.3,3-3.4,8.5-3.4,8.5l-5.2,9.5c-4.6,0.6-5.1,3.1-7.8,9.6c-2.7,6.5-8.5,10.2-8.9,6.3
	c-0.4-3.8,6.8-22,7-22.6c-1.9,0.7-5.4,1.1-5.4,1.1s-2.5,9.2-4.3,13.2s-1.7,10.5,3.3,11c5,0.5,9.5-9.6,9.5-9.6l0.2,0.3
	c0,0-0.6,9.6,10.5,5.7C334.6,150.5,333.1,142.9,329.4,138.8z M327.6,143.8c-2.9,11.4-9.4,10.8-10.9,10.1c-1.5-0.6-5.4-5.7,0.9-8.2
	c6.4-2.6,2.4-5.8,2.4-5.8l4.9-9l0.1,0.3l0.2,0.7C328.4,141.5,327.6,143.8,327.6,143.8z"/>
<path fill="none" stroke="#695835" stroke-width="0.5" stroke-miterlimit="10" d="M424.6,104.8c-0.7,1.8-0.3,3,1.2,3.5
	c1.5,0.5,3.2-0.5,3.8-2.3s0.7-3.3-0.7-3.8S425.3,103,424.6,104.8z"/>
<path fill="none" stroke="#695835" stroke-width="0.5" stroke-miterlimit="10" d="M422.6,113.4c0,0,4.2-0.2,5.5-0.9
	c0,0-8.6,20.8-7.9,22.6c0.5,1.4,2.2,6.6,13.8-14c0,0-6.4,18.3-13.3,16.9c-5.1-1-5.2-5.7-1.3-15.8
	C420.3,119.7,421.1,116.6,422.6,113.4z"/>
<path fill="none" stroke="#695835" stroke-width="0.5" stroke-miterlimit="10" d="M350.4,131.2c0,0-4.4,3.4-4,5.8s5.2,2.1,6.2-3.8
	c1-5.8-0.5-10-5.3-7.5c-4.8,2.5-16.3,12.4-11.3,21.9s16.6,1.6,21.8-13.6c0,0-9,16-14.6,16.2s-4.1-12.1-0.3-17.6
	c3.8-5.4,7.2-8.7,8.4-5.8C352.5,129.9,350.4,131.2,350.4,131.2z"/>
<path fill="none" stroke="#695835" stroke-width="0.5" stroke-miterlimit="10" d="M375.8,137.2c-0.3-0.1-0.6-0.2-0.8-0.2
	c0.5-0.9,0.9-1.8,1.3-2.6c0,0,0,0,0,0c0.3-0.7,0.6-1.4,0.8-2.2c0.4-1.3,0.8-2.9,1-4.8c0,0,0.3-6.2-3.5-6.1
	c-3.8,0.1-16.6,7.7-16.4,18.9s11.8,8.2,14.5,1.8c0.8-1.8,1.5-3.1,2.1-4.4c0.4,0.2,0.9,0.3,1.5,0.5c5,1,8.7-8.2,8.9-8.8
	C384.7,129.8,379.8,138.3,375.8,137.2z M371.6,141.9c-5.9,7.8-8.9,3.8-9.4,2s1.2-14.2,6.8-18.9c5.6-4.7,6.2-2.6,7.4-1.6
	s0.6,4.2,0.6,4.2v0.1c-0.8-0.3-2.3-0.5-3.4,1.6c-1.4,2.5-2.3,6.3,0.5,8C372.9,139.9,371.6,141.9,371.6,141.9z"/>
<path fill="none" stroke="#695835" stroke-width="0.5" stroke-miterlimit="10" d="M377.1,132.1c-0.2,0.9-0.5,1.6-0.8,2.2
	C376.6,133.6,376.9,132.9,377.1,132.1z"/>
<path fill="none" stroke="#695835" stroke-width="0.5" stroke-miterlimit="10" d="M401.2,126.5c0,0-0.6,3.9-6.3,12.8
	c-5.8,8.9-11.8,1.7-10.5-4.1c0.7-3.1,3.2-10.2,5.5-16.1l-4.3,0.7V119l4.6-0.7c1.8-4.8,3.4-8.7,3.4-8.7c3,0,4.5-1.1,4.5-1.1
	s-1,4.1-2.5,8.9l5.1-0.8v0.6l-5.3,0.9c-1.1,3.6-2.5,7.5-4,10.5c-3.6,7.2-4,14.3-1,14C393.4,142.3,401.2,126.5,401.2,126.5z"/>
<path fill="none" stroke="#695835" stroke-width="0.5" stroke-miterlimit="10" d="M417.5,123.9c0,0-0.6,3.9-6.3,12.8
	c-5.8,8.9-11.8,1.7-10.5-4.1c0.7-3.1,3.2-10.2,5.5-16.1l-4.3,0.7v-0.8l4.6-0.7c1.8-4.8,3.4-8.7,3.4-8.7c3,0,4.5-1.1,4.5-1.1
	s-1,4.1-2.5,8.9l5.1-0.8v0.6l-5.3,0.9c-1.1,3.6-2.5,7.5-4,10.5c-3.6,7.3-4,14.3-1,14C409.7,139.7,417.5,123.9,417.5,123.9z"/>
<path fill="#D8B463" d="M311.3,116.2c0,2.2-0.9,1.3-0.9,1.3c1.4-10.2-4.6-21.6-18.9-15.1c-2.9,1.3-5.5,3.2-7.7,5.3
	c0.1,0,0.2,0.1,0.3,0.1c7.4,3.6,7.8,10.6,6.9,14.9c-0.9,4.3-9.2,7.7-9.2,7.7s4.8,0.7,9.1,6c4.2,5.3,3.1,14.1-3.3,21.5
	c-6.4,7.4-19.2,9.4-21.5,1.8c-2.3-7.6,1.7-12.8,4.9-16.7c3.2-4,11.4-6.6,13.7-0.5c2.2,6.1-1.8,9.5-1.5,9s0.8-3,0.8-3
	c1.3-12.5-8.4-7.6-8.4-7.6c-13.1,9-10.1,24.9-0.1,22c10-2.9,12.4-13.3,12.8-20.8c0.4-7.4-7.8-11.2-7.8-11.2c0,0-0.3,0-3.3,0.6
	c-3.5,0.7-6.3,0.8-5-0.6c1.3-1.5,8-0.9,8-0.9c2.2-1.6,3.4-2.8,3.4-2.8c6.9-8,2-15.1-1.1-17.9c-8,8.7-12.3,22-15.8,34.6
	c-4.7,16.6-21.5,26.3-30.8,26.8s-15.4-5.4-12.2-11.4c3.2-6,8.6,1.2,5.1,3.6c-3.5,2.4-4.1-1.2-4.1-1.2c-2.2,9.5,13.9,7.7,13.9,7.7
	c18.5-4.6,23-29.3,31.9-44.6c3.1-5.3,6.8-11.3,11.2-16.2c0,0-0.1-0.1-0.1-0.1c-2.9-2-22.7-9.4-42.5,9.4
	c-19.9,18.7-13.6,33.3-7.6,35.9c6,2.7,12.3-0.9,12.3-0.9c19.1-13,20.5-30.4,12.6-31.8c-7.9-1.4-17.1,10.2-19.7,18.5s4.8,8.6,4.8,8.6
	c-2.3,0.8-10.6-1.9-5.4-13.6c5.2-11.7,19.8-18.9,24.3-12.4c4.6,6.5-1.6,17.1-1.6,17.1c-11.7,19.1-25.2,18.2-30.7,13.9
	c-5.5-4.3-10.8-20.3,9.4-37c19-15.7,37.1-12.3,45.4-8.9c4.9-5,10.7-8.4,17.5-7.6C313.8,101.3,311.3,113.9,311.3,116.2z"/>
<path fill="#D8B463" d="M311.5,121.9c-0.3,0-3,0.1-4.1,3.8c-1.1,3.8,3.2,2.9,4.5,1.1C313.2,125,313.8,121.7,311.5,121.9z"/>
<path fill="#D8B463" d="M329.4,138.8c-3.8-4.1-3.3-9.7-3.3-9.7c3.4-3.1,5.2-10.7,1.9-7.7c-3.3,3-3.4,8.5-3.4,8.5l-5.2,9.5
	c-4.6,0.6-5.1,3.1-7.8,9.6c-2.7,6.5-8.5,10.2-8.9,6.3c-0.4-3.8,6.8-22,7-22.6c-1.9,0.7-5.4,1.1-5.4,1.1s-2.5,9.2-4.3,13.2
	s-1.7,10.5,3.3,11c5,0.5,9.5-9.6,9.5-9.6l0.2,0.3c0,0-0.6,9.6,10.5,5.7C334.6,150.5,333.1,142.9,329.4,138.8z M327.6,143.8
	c-2.9,11.4-9.4,10.8-10.9,10.1c-1.5-0.6-5.4-5.7,0.9-8.2c6.4-2.6,2.4-5.8,2.4-5.8l4.9-9l0.1,0.3l0.2,0.7
	C328.4,141.5,327.6,143.8,327.6,143.8z"/>
<path fill="#D8B463" d="M424.6,104.8c-0.7,1.8-0.3,3,1.2,3.5c1.5,0.5,3.2-0.5,3.8-2.3s0.7-3.3-0.7-3.8S425.3,103,424.6,104.8z"/>
<path fill="#D8B463" d="M422.6,113.4c0,0,4.2-0.2,5.5-0.9c0,0-8.6,20.8-7.9,22.6c0.5,1.4,2.2,6.6,13.8-14c0,0-6.4,18.3-13.3,16.9
	c-5.1-1-5.2-5.7-1.3-15.8C420.3,119.7,421.1,116.6,422.6,113.4z"/>
<path fill="#D8B463" d="M350.4,131.2c0,0-4.4,3.4-4,5.8s5.2,2.1,6.2-3.8c1-5.8-0.5-10-5.3-7.5c-4.8,2.5-16.3,12.4-11.3,21.9
	s16.6,1.6,21.8-13.6c0,0-9,16-14.6,16.2s-4.1-12.1-0.3-17.6c3.8-5.4,7.2-8.7,8.4-5.8C352.5,129.9,350.4,131.2,350.4,131.2z"/>
<path fill="#D8B463" d="M375.8,137.2c-0.3-0.1-0.6-0.2-0.8-0.2c0.5-0.9,0.9-1.8,1.3-2.6c0,0,0,0,0,0c0.3-0.7,0.6-1.4,0.8-2.2
	c0.4-1.3,0.8-2.9,1-4.8c0,0,0.3-6.2-3.5-6.1c-3.8,0.1-16.6,7.7-16.4,18.9s11.8,8.2,14.5,1.8c0.8-1.8,1.5-3.1,2.1-4.4
	c0.4,0.2,0.9,0.3,1.5,0.5c5,1,8.7-8.2,8.9-8.8C384.7,129.8,379.8,138.3,375.8,137.2z M371.6,141.9c-5.9,7.8-8.9,3.8-9.4,2
	s1.2-14.2,6.8-18.9c5.6-4.7,6.2-2.6,7.4-1.6s0.6,4.2,0.6,4.2v0.1c-0.8-0.3-2.3-0.5-3.4,1.6c-1.4,2.5-2.3,6.3,0.5,8
	C372.9,139.9,371.6,141.9,371.6,141.9z"/>
<path fill="#D8B463" d="M401.2,126.5c0,0-0.6,3.9-6.3,12.8c-5.8,8.9-11.8,1.7-10.5-4.1c0.7-3.1,3.2-10.2,5.5-16.1l-4.3,0.7V119
	l4.6-0.7c1.8-4.8,3.4-8.7,3.4-8.7c3,0,4.5-1.1,4.5-1.1s-1,4.1-2.5,8.9l5.1-0.8v0.6l-5.3,0.9c-1.1,3.6-2.5,7.5-4,10.5
	c-3.6,7.2-4,14.3-1,14C393.4,142.3,401.2,126.5,401.2,126.5z"/>
<path fill="#D8B463" d="M417.5,123.9c0,0-0.6,3.9-6.3,12.8c-5.8,8.9-11.8,1.7-10.5-4.1c0.7-3.1,3.2-10.2,5.5-16.1l-4.3,0.7v-0.8
	l4.6-0.7c1.8-4.8,3.4-8.7,3.4-8.7c3,0,4.5-1.1,4.5-1.1s-1,4.1-2.5,8.9l5.1-0.8v0.6l-5.3,0.9c-1.1,3.6-2.5,7.5-4,10.5
	c-3.6,7.3-4,14.3-1,14C409.7,139.7,417.5,123.9,417.5,123.9z"/>
</svg>
