<?xml version="1.0" encoding="utf-8"?>
<!-- Generator: Adobe Illustrator 18.1.1, SVG Export Plug-In . SVG Version: 6.00 Build 0)  -->
<svg version="1.1" xmlns="http://www.w3.org/2000/svg" xmlns:xlink="http://www.w3.org/1999/xlink" x="0px" y="0px" width="77.8px"
	 height="77.7px" viewBox="0 0 77.8 77.7" enable-background="new 0 0 77.8 77.7" xml:space="preserve">
<g id="Layer_1">
</g>
<g id="Type">
	<path fill="#D8B563" d="M67.6,0H10.2C4.6,0,0,4.6,0,10.2v57.2C0,73,4.6,77.7,10.2,77.7h57.4c5.6,0,10.2-4.6,10.2-10.2V10.2
		C77.8,4.6,73.2,0,67.6,0z M67.5,20.3h-4.8c-5.7,0-5.6,4.5-5.6,4.5v3.8h10.4v11H57.4v32.5H42.5l0.2-32.3h-9V28.5h8.8v-5.1
		c0-14.6,16.2-14.2,16.2-14.2h8.8V20.3z"/>
</g>
</svg>
