<?xml version="1.0" encoding="utf-8"?>
<!-- Generator: Adobe Illustrator 18.1.1, SVG Export Plug-In . SVG Version: 6.00 Build 0)  -->
<svg version="1.1" id="Layer_1" xmlns="http://www.w3.org/2000/svg" xmlns:xlink="http://www.w3.org/1999/xlink" x="0px" y="0px"
	 width="77.8px" height="77.7px" viewBox="-160 112.3 77.8 77.7" enable-background="new -160 112.3 77.8 77.7"
	 xml:space="preserve">
<g id="Layer_1_1_">
</g>
<g id="Type">
	<path fill="#B5CDB9" d="M-93.1,154.6h-55.8c-2.4,0-4.4-2-4.4-4.4l0,0c0-2.4,2-4.4,4.4-4.4h55.8c2.4,0,4.4,2,4.4,4.4l0,0
		C-88.7,152.6-90.7,154.6-93.1,154.6z"/>
	<path fill="#B5CDB9" d="M-93.1,174.6h-55.8c-2.4,0-4.4-2-4.4-4.4l0,0c0-2.4,2-4.4,4.4-4.4h55.8c2.4,0,4.4,2,4.4,4.4l0,0
		C-88.7,172.6-90.7,174.6-93.1,174.6z"/>
	<path fill="#B5CDB9" d="M-93.1,134.6h-55.8c-2.4,0-4.4-2-4.4-4.4l0,0c0-2.4,2-4.4,4.4-4.4h55.8c2.4,0,4.4,2,4.4,4.4l0,0
		C-88.7,132.6-90.7,134.6-93.1,134.6z"/>
</g>
<g id="Website">
</g>
</svg>
