<?xml version="1.0" encoding="utf-8"?>
<!-- Generator: Adobe Illustrator 18.1.1, SVG Export Plug-In . SVG Version: 6.00 Build 0)  -->
<svg version="1.1" xmlns="http://www.w3.org/2000/svg" xmlns:xlink="http://www.w3.org/1999/xlink" x="0px" y="0px" width="77.8px"
	 height="77.7px" viewBox="0 0 77.8 77.7" enable-background="new 0 0 77.8 77.7" xml:space="preserve">
<g id="Layer_1">
</g>
<g id="Type">
	<path fill="#D8B563" d="M67.6,0H10.2C4.6,0,0,4.6,0,10.2v57.2C0,73,4.6,77.7,10.2,77.7h57.4c5.6,0,10.2-4.6,10.2-10.2V10.2
		C77.8,4.6,73.2,0,67.6,0z M53.7,51.3c1.7,0.1,3.2,0.8,4.2,1.9c1.1,1.1,1.8,2.7,1.8,4.3c0,3.4-2.7,6.1-6,6.2c-0.1,0-0.1,0-0.2,0
		H33.3c-10.6,0-12-11.5-12-11.5V21.3h0c0-0.2,0-0.3,0-0.5c0-3.7,2.7-6.7,6.1-6.7s6.1,3,6.1,6.7v6h19.7c0.1,0,0.2,0,0.4,0
		c3.3,0.2,6,3,6,6.4c0,3.4-2.7,6.2-6,6.4H33.5v11.7L53.7,51.3z"/>
</g>
</svg>
